# xmcd
#
# Track frame offsets:
#	160
#	17962
#	36035
#	45022
#	60342
#	81912
#	96182
#	108612
#	128402
#	144717
#	158990
#	179570
#
# Disc length: 2599 seconds
#
# Revision: 2
# Processed by: cddbd v1.4b42PL1 Copyright (c) Steve Scherf et al.
# Submitted via: EasyCDDAExtractor 4.5.0.2
#
DISCID=970a250c
DTITLE=Tony Rice - Me and My Guitar
DYEAR=1987
DGENRE=Bluegrass
TTITLE0=Me And My Guitar
TTITLE1=Four Strong Winds
TTITLE2=Walls
TTITLE3=Greenlight On The Southern
TTITLE4=Port Tobacco
TTITLE5=Early Morning Rain
TTITLE6=Sixteen Miles
TTITLE7=Hard Love
TTITLE8=Tipper
TTITLE9=Song For A Winter's Night
TTITLE10=Sweetheart Like You
TTITLE11=Fine As Fine Can Be
EXTD=
EXTT0=
EXTT1=
EXTT2=
EXTT3=
EXTT4=
EXTT5=
EXTT6=
EXTT7=
EXTT8=
EXTT9=
EXTT10=
EXTT11=
PLAYORDER=
